
<svg version="1.0" id="Layer_1" xmlns="http://www.w3.org/2000/svg" xmlns:xlink="http://www.w3.org/1999/xlink" x="0px" y="0px"
	 viewBox="0 0 88.8 57.4" xml:space="preserve">
<g>
	<linearGradient id="SVGID_1_" gradientUnits="userSpaceOnUse" x1="16.5949" y1="55.5357" x2="16.5949" y2="1.8393">
		<stop  offset="0.2547" style="stop-color:#7F5CE0"/>
		<stop  offset="0.9663" style="stop-color:#8E7CD1"/>
	</linearGradient>
	<path fill="url(#SVGID_1_)" d="M30.5,1.8H18.3c-0.4,0-0.8,0.2-1,0.6L1.7,28.2c-0.2,0.3-0.2,0.7-0.1,1.1l11,25.6
		c0.2,0.4,0.6,0.7,1.1,0.7h12.4c0.9,0,1.4-0.9,1.1-1.7L16.6,29.2c-0.2-0.4-0.1-0.8,0.1-1.1L31.5,3.6C32,2.8,31.4,1.8,30.5,1.8z"/>
	<g>
		<path fill="#0B9BD0" d="M56.5,1.8H46.4c-0.7,0-1.4,0.4-1.8,1L30.9,25.5c-0.8,1.4,0.2,3.2,1.8,3.2h10.1c0.7,0,1.4-0.4,1.8-1L58.3,5
			C59.1,3.6,58.1,1.8,56.5,1.8z"/>
		<path fill="#4FC1E9" d="M31.6,55.5h10.1c0.7,0,1.4-0.4,1.8-1l13.7-22.7c0.8-1.4-0.2-3.2-1.8-3.2H45.3c-0.7,0-1.4,0.4-1.8,1
			L29.8,52.4C29,53.8,30,55.5,31.6,55.5z"/>
	</g>
	<linearGradient id="SVGID_2_" gradientUnits="userSpaceOnUse" x1="72.1551" y1="55.5357" x2="72.1551" y2="1.8393">
		<stop  offset="0" style="stop-color:#8E7CD1"/>
		<stop  offset="1" style="stop-color:#7F5CE0"/>
	</linearGradient>
	<path fill="url(#SVGID_2_)" d="M75,1.8H62.6c-0.9,0-1.4,0.9-1.1,1.7l10.6,24.6c0.2,0.4,0.1,0.8-0.1,1.1L57.2,53.7
		c-0.5,0.8,0.1,1.8,1,1.8h12.2c0.4,0,0.8-0.2,1-0.6l15.6-25.8c0.2-0.3,0.2-0.7,0.1-1.1l-11-25.6C75.9,2.1,75.5,1.8,75,1.8z"/>
</g>
</svg>
